<?xml version="1.0" encoding="UTF-8"?>
<svg width="30px" height="28px" viewBox="0 0 30 28" version="1.1" xmlns="http://www.w3.org/2000/svg" xmlns:xlink="http://www.w3.org/1999/xlink">
    <!-- Generator: Sketch 47.1 (45422) - http://www.bohemiancoding.com/sketch -->
    <title>featured</title>
    <desc>Created with Sketch.</desc>
    <defs></defs>
    <g id="Stage" stroke="none" stroke-width="1" fill="none" fill-rule="evenodd">
        <g id="Artboard" transform="translate(-877.000000, -107.000000)" fill="#FFFFFF">
            <path d="M891.534659,130.244644 L884.388908,134.001388 L884.388908,134.001388 C883.900064,134.258389 883.295436,134.070442 883.038436,133.581598 C882.936096,133.386937 882.900782,133.163969 882.937959,132.947211 L884.302676,124.990301 L884.302676,124.990301 C884.358314,124.665907 884.250765,124.334907 884.015079,124.105169 L878.234045,118.470054 L878.234045,118.470054 C877.838562,118.084553 877.830469,117.45144 878.215971,117.055956 C878.369479,116.898473 878.570622,116.795985 878.788259,116.764361 L886.777451,115.603463 L886.777451,115.603463 C887.103161,115.556135 887.384727,115.351565 887.530389,115.056422 L891.103264,107.816986 L891.103264,107.816986 C891.347686,107.321732 891.947312,107.118393 892.442566,107.362815 C892.639778,107.460146 892.799406,107.619773 892.896736,107.816986 L896.469611,115.056422 L896.469611,115.056422 C896.615273,115.351565 896.896839,115.556135 897.222549,115.603463 L905.211741,116.764361 L905.211741,116.764361 C905.758286,116.843778 906.136968,117.351221 906.05755,117.897766 C906.025926,118.115403 905.923438,118.316546 905.765955,118.470054 L899.984921,124.105169 L899.984921,124.105169 C899.749235,124.334907 899.641686,124.665907 899.697324,124.990301 L901.062041,132.947211 L901.062041,132.947211 C901.155402,133.491548 900.789815,134.008504 900.245478,134.101865 C900.02872,134.139042 899.805752,134.103727 899.611092,134.001388 L892.465341,130.244644 L892.465341,130.244644 C892.174017,130.091486 891.825983,130.091486 891.534659,130.244644 Z" id="featured"></path>
        </g>
    </g>
</svg>