<?xml version="1.0" encoding="UTF-8"?>
<svg width="34px" height="34px" viewBox="0 0 34 34" version="1.1" xmlns="http://www.w3.org/2000/svg" xmlns:xlink="http://www.w3.org/1999/xlink">
    <!-- Generator: Sketch 47.1 (45422) - http://www.bohemiancoding.com/sketch -->
    <title>full-screen-2</title>
    <desc>Created with Sketch.</desc>
    <defs></defs>
    <g id="Stage" stroke="none" stroke-width="1" fill="none" fill-rule="evenodd">
        <g id="Artboard" transform="translate(-280.000000, -203.000000)" fill="#FFFFFF">
            <path d="M308.914214,229.085786 L300.414214,220.585786 L297.585786,223.414214 L306.085786,231.914214 L302.707107,235.292893 C302.316582,235.683418 302.316582,236.316582 302.707107,236.707107 C302.894643,236.894643 303.148997,237 303.414214,237 L313,237 L313,237 C313.552285,237 314,236.552285 314,236 L314,226.414214 L314,226.414214 C314,225.861929 313.552285,225.414214 313,225.414214 C312.734784,225.414214 312.48043,225.51957 312.292893,225.707107 L308.914214,229.085786 Z M287.914214,208.085786 L291.292893,204.707107 C291.683418,204.316582 291.683418,203.683418 291.292893,203.292893 C291.105357,203.105357 290.851003,203 290.585786,203 L290.585786,203 L281,203 L281,203 C280.447715,203 280,203.447715 280,204 L280,213.585786 L280,213.585786 C280,214.138071 280.447715,214.585786 281,214.585786 C281.265216,214.585786 281.51957,214.48043 281.707107,214.292893 L285.085786,210.914214 L293.585786,219.414214 L296.414214,216.585786 L287.914214,208.085786 Z" id="full-screen-2"></path>
        </g>
    </g>
</svg>