<?xml version="1.0" encoding="UTF-8"?>
<svg width="38px" height="38px" viewBox="0 0 38 38" version="1.1" xmlns="http://www.w3.org/2000/svg" xmlns:xlink="http://www.w3.org/1999/xlink">
    <!-- Generator: Sketch 47.1 (45422) - http://www.bohemiancoding.com/sketch -->
    <title>full-screen-1</title>
    <desc>Created with Sketch.</desc>
    <defs></defs>
    <g id="Stage" stroke="none" stroke-width="1" fill="none" fill-rule="evenodd">
        <g id="Artboard" transform="translate(-24.000000, -202.000000)" fill-rule="nonzero" fill="#FFFFFF">
            <path d="M38,206 L28,206 L28,216 L24,216 L24,202 L38,202 L38,206 Z M48,206 L48,202 L62,202 L62,216 L58,216 L58,206 L48,206 Z M38,236 L38,240 L24,240 L24,226 L28,226 L28,236 L38,236 Z M48,236 L58,236 L58,226 L62,226 L62,240 L48,240 L48,236 Z" id="full-screen-1"></path>
        </g>
    </g>
</svg>