<?xml version="1.0" encoding="UTF-8"?>
<svg width="38px" height="38px" viewBox="0 0 38 38" version="1.1" xmlns="http://www.w3.org/2000/svg" xmlns:xlink="http://www.w3.org/1999/xlink">
    <!-- Generator: Sketch 47.1 (45422) - http://www.bohemiancoding.com/sketch -->
    <title>minimize-1</title>
    <desc>Created with Sketch.</desc>
    <defs></defs>
    <g id="Stage" stroke="none" stroke-width="1" fill="none" fill-rule="evenodd">
        <g id="Artboard" transform="translate(-109.000000, -202.000000)" fill-rule="nonzero" fill="#FFFFFF">
            <path d="M147,230 L137,230 L137,240 L133,240 L133,226 L147,226 L147,230 Z M109,230 L109,226 L123,226 L123,240 L119,240 L119,230 L109,230 Z M147,212 L147,216 L133,216 L133,202 L137,202 L137,212 L147,212 Z M109,212 L119,212 L119,202 L123,202 L123,216 L109,216 L109,212 Z" id="minimize-1"></path>
        </g>
    </g>
</svg>