<?xml version="1.0" encoding="UTF-8"?>
<svg width="36px" height="36px" viewBox="0 0 36 36" version="1.1" xmlns="http://www.w3.org/2000/svg" xmlns:xlink="http://www.w3.org/1999/xlink">
    <!-- Generator: Sketch 47.1 (45422) - http://www.bohemiancoding.com/sketch -->
    <title>minimize-2</title>
    <desc>Created with Sketch.</desc>
    <defs></defs>
    <g id="Stage" stroke="none" stroke-width="1" fill="none" fill-rule="evenodd">
        <g id="Artboard" transform="translate(-194.000000, -202.000000)" fill="#FFFFFF">
            <path d="M205.914214,211.085786 L197.414214,202.585786 L194.585786,205.414214 L203.085786,213.914214 L199.707107,217.292893 C199.316582,217.683418 199.316582,218.316582 199.707107,218.707107 C199.894643,218.894643 200.148997,219 200.414214,219 L210,219 L210,219 C210.552285,219 211,218.552285 211,218 L211,208.414214 C211,207.861929 210.552285,207.414214 210,207.414214 C209.734784,207.414214 209.48043,207.51957 209.292893,207.707107 L205.914214,211.085786 Z M220.914214,226.085786 L224.292893,222.707107 C224.683418,222.316582 224.683418,221.683418 224.292893,221.292893 C224.105357,221.105357 223.851003,221 223.585786,221 L214,221 L214,221 C213.447715,221 213,221.447715 213,222 L213,231.585786 L213,231.585786 C213,232.138071 213.447715,232.585786 214,232.585786 C214.265216,232.585786 214.51957,232.48043 214.707107,232.292893 L218.085786,228.914214 L226.585786,237.414214 L229.414214,234.585786 L220.914214,226.085786 Z" id="minimize-2"></path>
        </g>
    </g>
</svg>