<?xml version="1.0" encoding="UTF-8"?>
<svg width="30px" height="38px" viewBox="0 0 30 38" version="1.1" xmlns="http://www.w3.org/2000/svg" xmlns:xlink="http://www.w3.org/1999/xlink">
    <!-- Generator: Sketch 47.1 (45422) - http://www.bohemiancoding.com/sketch -->
    <title>music</title>
    <desc>Created with Sketch.</desc>
    <defs></defs>
    <g id="Stage" stroke="none" stroke-width="1" fill="none" fill-rule="evenodd">
        <g id="Artboard" transform="translate(-536.000000, -201.000000)" fill-rule="nonzero" fill="#FFFFFF">
            <path d="M562,206.774852 L562,224.315342 C562,226.524481 560.209139,228.315342 558,228.315342 C557.672953,228.315342 557.34714,228.275232 557.029857,228.195912 L556.485071,228.059715 C555.413481,227.791818 554.327612,228.443339 554.059715,229.514929 C553.791818,230.586519 554.443339,231.672388 555.514929,231.940285 L556.059715,232.076482 C556.69428,232.235123 557.345906,232.315342 558,232.315342 C562.418278,232.315342 566,228.73362 566,224.315342 L566,201.225148 L544,208.558482 L544,230.315342 C544,230.642389 543.959891,230.968202 543.88057,231.285484 C543.344775,233.428664 541.173037,234.731706 539.029857,234.195912 L538.485071,234.059715 C537.413481,233.791818 536.327612,234.443339 536.059715,235.514929 C535.791818,236.586519 536.443339,237.672388 537.514929,237.940285 L538.059715,238.076482 C542.346074,239.148071 546.68955,236.541986 547.76114,232.255627 C547.919781,231.621062 548,230.969436 548,230.315342 L548,211.441518 L562,206.774852 Z" id="music"></path>
        </g>
    </g>
</svg>