<?xml version="1.0" encoding="UTF-8"?>
<svg width="48px" height="38px" viewBox="0 0 48 38" version="1.1" xmlns="http://www.w3.org/2000/svg" xmlns:xlink="http://www.w3.org/1999/xlink">
    <!-- Generator: Sketch 47.1 (45422) - http://www.bohemiancoding.com/sketch -->
    <title>picture-in</title>
    <desc>Created with Sketch.</desc>
    <defs></defs>
    <g id="Stage" stroke="none" stroke-width="1" fill="none" fill-rule="evenodd">
        <g id="Artboard" transform="translate(-868.000000, -200.000000)" fill-rule="nonzero" fill="#FFFFFF">
            <path d="M882.914214,212.085786 L890.414214,219.585786 L887.585786,222.414214 L880.085786,214.914214 L877.707107,217.292893 C877.51957,217.48043 877.265216,217.585786 877,217.585786 C876.447715,217.585786 876,217.138071 876,216.585786 L876,216.585786 L876,209 C876,208.447715 876.447715,208 877,208 L877,208 L884.585786,208 C884.851003,208 885.105357,208.105357 885.292893,208.292893 C885.683418,208.683418 885.683418,209.316582 885.292893,209.707107 L885.292893,209.707107 L882.914214,212.085786 Z M888,226 L888,230 L872,230 C869.790861,230 868,228.209139 868,226 L868,204 C868,201.790861 869.790861,200 872,200 L906,200 C908.209139,200 910,201.790861 910,204 L910,218 L906,218 L906,204 L872,204 L872,226 L888,226 Z M894,222 L914,222 C915.104569,222 916,222.895431 916,224 L916,236 C916,237.104569 915.104569,238 914,238 L894,238 C892.895431,238 892,237.104569 892,236 L892,224 C892,222.895431 892.895431,222 894,222 Z" id="picture-in"></path>
        </g>
    </g>
</svg>