<?xml version="1.0" encoding="UTF-8"?>
<svg width="48px" height="38px" viewBox="0 0 48 38" version="1.1" xmlns="http://www.w3.org/2000/svg" xmlns:xlink="http://www.w3.org/1999/xlink">
    <!-- Generator: Sketch 47.1 (45422) - http://www.bohemiancoding.com/sketch -->
    <title>picture-out</title>
    <desc>Created with Sketch.</desc>
    <defs></defs>
    <g id="Stage" stroke="none" stroke-width="1" fill="none" fill-rule="evenodd">
        <g id="Artboard" transform="translate(-783.000000, -200.000000)" fill-rule="nonzero" fill="#FFFFFF">
            <path d="M797.085786,216.914214 L789.585786,209.414214 L792.414214,206.585786 L799.914214,214.085786 L802.292893,211.707107 C802.48043,211.51957 802.734784,211.414214 803,211.414214 C803.552285,211.414214 804,211.861929 804,212.414214 L804,220 C804,220.552285 803.552285,221 803,221 L803,221 L795.414214,221 C795.148997,221 794.894643,220.894643 794.707107,220.707107 C794.316582,220.316582 794.316582,219.683418 794.707107,219.292893 L797.085786,216.914214 Z M803,226 L803,230 L787,230 C784.790861,230 783,228.209139 783,226 L783,204 C783,201.790861 784.790861,200 787,200 L821,200 C823.209139,200 825,201.790861 825,204 L825,218 L821,218 L821,204 L787,204 L787,226 L803,226 Z M809,222 L829,222 C830.104569,222 831,222.895431 831,224 L831,236 C831,237.104569 830.104569,238 829,238 L809,238 C807.895431,238 807,237.104569 807,236 L807,224 C807,222.895431 807.895431,222 809,222 Z" id="picture-out"></path>
        </g>
    </g>
</svg>