<?xml version="1.0" encoding="UTF-8"?>
<svg width="40px" height="25px" viewBox="0 0 40 25" version="1.1" xmlns="http://www.w3.org/2000/svg" xmlns:xlink="http://www.w3.org/1999/xlink">
    <!-- Generator: Sketch 47.1 (45422) - http://www.bohemiancoding.com/sketch -->
    <title>playlist</title>
    <desc>Created with Sketch.</desc>
    <defs></defs>
    <g id="Stage" stroke="none" stroke-width="1" fill="none" fill-rule="evenodd">
        <g id="Artboard" transform="translate(-362.000000, -208.000000)" fill-rule="nonzero" fill="#FFFFFF">
            <path d="M382,212 L382,208 L402,208 L402,212 L382,212 Z M382,222 L382,218 L402,218 L402,222 L382,222 Z M376.742781,211.856953 L373,213.354066 L373,225.937742 C373,227.100018 372.696684,228.242173 372.120034,229.25131 C370.290001,232.453868 366.21028,233.566519 363.007722,231.736486 C362.048687,231.188466 361.715494,229.966757 362.263514,229.007722 C362.811534,228.048687 364.033243,227.715494 364.992278,228.263514 C366.276766,228.997507 367.913068,228.551243 368.647062,227.266755 C368.878346,226.862008 369,226.40391 369,225.937742 L369,210.645934 L375.257219,208.143047 C376.282786,207.73282 377.446727,208.231652 377.856953,209.257219 C378.26718,210.282786 377.768348,211.446727 376.742781,211.856953 Z M382,232 L382,228 L402,228 L402,232 L382,232 Z" id="playlist"></path>
        </g>
    </g>
</svg>