<?xml version="1.0" encoding="UTF-8"?>
<svg width="46px" height="39px" viewBox="0 0 46 39" version="1.1" xmlns="http://www.w3.org/2000/svg" xmlns:xlink="http://www.w3.org/1999/xlink">
    <!-- Generator: Sketch 47.1 (45422) - http://www.bohemiancoding.com/sketch -->
    <title>radio-2</title>
    <desc>Created with Sketch.</desc>
    <defs></defs>
    <g id="Stage" stroke="none" stroke-width="1" fill="none" fill-rule="evenodd">
        <g id="Artboard" transform="translate(-699.000000, -202.000000)" fill-rule="nonzero" fill="#FFFFFF">
            <path d="M720.817977,223.822479 C719.185858,223.318355 718,221.797664 718,220 C718,217.790861 719.790861,216 722,216 C724.209139,216 726,217.790861 726,220 C726,221.797664 724.814142,223.318355 723.182023,223.822479 L724,241 L720,241 L720.817977,223.822479 Z M737.092335,202.643815 C741.937411,206.860501 745,213.072598 745,220 C745,226.927402 741.937411,233.139499 737.092335,237.356185 L734.467581,234.337718 C738.470035,230.854368 741,225.722637 741,220 C741,214.277363 738.470035,209.145632 734.467581,205.662282 L737.092335,202.643815 Z M706.907665,202.643815 L709.532419,205.662282 C705.529965,209.145632 703,214.277363 703,220 C703,225.722637 705.529965,230.854368 709.532419,234.337718 L706.907665,237.356185 C702.062589,233.139499 699,226.927402 699,220 C699,213.072598 702.062589,206.860501 706.907665,202.643815 Z M731.186639,209.435365 C734.135815,212.002044 736,215.78332 736,220 C736,224.21668 734.135815,227.997956 731.186639,230.564635 L728.561885,227.546168 C730.668439,225.712825 732,223.011914 732,220 C732,216.988086 730.668439,214.287175 728.561885,212.453832 L731.186639,209.435365 Z M712.813361,209.435365 L715.438115,212.453832 C713.331561,214.287175 712,216.988086 712,220 C712,223.011914 713.331561,225.712825 715.438115,227.546168 L712.813361,230.564635 C709.864185,227.997956 708,224.21668 708,220 C708,215.78332 709.864185,212.002044 712.813361,209.435365 Z" id="radio-2"></path>
        </g>
    </g>
</svg>