<?xml version="1.0" encoding="UTF-8"?>
<svg width="44px" height="44px" viewBox="0 0 44 44" version="1.1" xmlns="http://www.w3.org/2000/svg" xmlns:xlink="http://www.w3.org/1999/xlink">
    <!-- Generator: Sketch 47.1 (45422) - http://www.bohemiancoding.com/sketch -->
    <title>radio-1</title>
    <desc>Created with Sketch.</desc>
    <defs></defs>
    <g id="Stage" stroke="none" stroke-width="1" fill="none" fill-rule="evenodd">
        <g id="Artboard" transform="translate(-615.000000, -199.000000)" fill-rule="nonzero" fill="#FFFFFF">
            <path d="M635.864921,224.836661 C634.208646,224.347413 633,222.814854 633,221 C633,218.790861 634.790861,217 637,217 C639.209139,217 641,218.790861 641,221 C641,222.814854 639.791354,224.347413 638.135079,224.836661 L639,243 L635,243 L635.864921,224.836661 Z M631.076815,242.193445 C621.803528,239.607191 615,231.09812 615,221 C615,208.849736 624.849736,199 637,199 C649.150264,199 659,208.849736 659,221 C659,231.09812 652.196472,239.607191 642.923185,242.193445 L642.536429,238.132504 C649.768674,235.797116 655,229.009479 655,221 C655,211.058875 646.941125,203 637,203 C627.058875,203 619,211.058875 619,221 C619,229.009479 624.231326,235.797116 631.463571,238.132504 L631.076815,242.193445 Z M631.953873,232.984333 C627.280496,231.014166 624,226.390183 624,221 C624,213.820298 629.820298,208 637,208 C644.179702,208 650,213.820298 650,221 C650,226.390183 646.719504,231.014166 642.046127,232.984333 L641.639395,228.713644 C644.252443,227.138636 646,224.2734 646,221 C646,216.029437 641.970563,212 637,212 C632.029437,212 628,216.029437 628,221 C628,224.2734 629.747557,227.138636 632.360605,228.713641 L631.953873,232.984333 Z" id="radio-1"></path>
        </g>
    </g>
</svg>