<?xml version="1.0" encoding="UTF-8"?>
<svg width="42px" height="33px" viewBox="0 0 42 33" version="1.1" xmlns="http://www.w3.org/2000/svg" xmlns:xlink="http://www.w3.org/1999/xlink">
    <!-- Generator: Sketch 47.1 (45422) - http://www.bohemiancoding.com/sketch -->
    <title>repeat-1</title>
    <desc>Created with Sketch.</desc>
    <defs></defs>
    <g id="Stage" stroke="none" stroke-width="1" fill="none" fill-rule="evenodd">
        <g id="Artboard" transform="translate(-446.000000, -106.000000)" fill-rule="nonzero" fill="#FFFFFF">
            <path d="M476,110 L458,110 C451.372583,110 446,115.372583 446,122 L450,122 C450,117.581722 453.581722,114 458,114 L476,114 L476,116.999524 C476,117.551808 476.447715,117.999524 477,117.999524 C477.208285,117.999524 477.411373,117.934486 477.580911,117.813491 L477.580911,117.813491 L484.586149,112.814008 L484.586149,112.814008 C485.035691,112.493179 485.140034,111.868671 484.819206,111.41913 C484.754945,111.329088 484.67619,111.250333 484.586149,111.186073 L477.580911,106.186589 L477.580911,106.186589 C477.131369,105.865761 476.506861,105.970104 476.186033,106.419646 C476.065037,106.589184 476,106.792271 476,107.000556 L476,110 Z M458,135 L458,137.999524 L458,137.999524 C458,138.551808 457.552285,138.999524 457,138.999524 C456.791715,138.999524 456.588627,138.934486 456.419089,138.813491 L449.413851,133.814008 C448.964309,133.493179 448.859966,132.868671 449.180794,132.41913 C449.245055,132.329088 449.32381,132.250333 449.413851,132.186073 L456.419089,127.186589 C456.868631,126.865761 457.493139,126.970104 457.813967,127.419646 C457.934963,127.589184 458,127.792271 458,128.000556 L458,131 L476,131 C480.418278,131 484,127.418278 484,123 L488,123 C488,129.627417 482.627417,135 476,135 L458,135 Z M466,121 L466,126 L468,126 L468,119 L466,119 L464,121 L465,122 L466,121 Z M466.5,129 C462.910149,129 460,126.089851 460,122.5 C460,118.910149 462.910149,116 466.5,116 C470.089851,116 473,118.910149 473,122.5 C473,126.089851 470.089851,129 466.5,129 Z" id="repeat-1"></path>
        </g>
    </g>
</svg>