<?xml version="1.0" encoding="UTF-8"?>
<svg width="42px" height="28px" viewBox="0 0 42 28" version="1.1" xmlns="http://www.w3.org/2000/svg" xmlns:xlink="http://www.w3.org/1999/xlink">
    <!-- Generator: Sketch 47.1 (45422) - http://www.bohemiancoding.com/sketch -->
    <title>repeat-all</title>
    <desc>Created with Sketch.</desc>
    <defs></defs>
    <g id="Stage" stroke="none" stroke-width="1" fill="none" fill-rule="evenodd">
        <g id="Artboard" transform="translate(-531.000000, -110.000000)" fill-rule="nonzero" fill="#FFFFFF">
            <path d="M553,134 L561,134 C567.627417,134 573,128.627417 573,122 C573,115.372583 567.627417,110 561,110 L543,110 C536.372583,110 531,115.372583 531,122 C531,126.85738 533.913291,131.178544 538.306951,133.047043 L539.87236,129.36608 C536.942284,128.120001 535,125.239092 535,122 C535,117.581722 538.581722,114 543,114 L561,114 C565.418278,114 569,117.581722 569,122 C569,126.418278 565.418278,130 561,130 L553,130 L553,127.000556 C553,126.792271 552.934963,126.589184 552.813967,126.419646 C552.493139,125.970104 551.868631,125.865761 551.419089,126.186589 L551.419089,126.186589 L544.413851,131.186073 C544.32381,131.250333 544.245055,131.329088 544.180794,131.41913 C543.859966,131.868671 543.964309,132.493179 544.413851,132.814008 L544.413851,132.814008 L551.419089,137.813491 C551.588627,137.934486 551.791715,137.999524 552,137.999524 C552.552285,137.999524 553,137.551808 553,136.999524 L553,134 Z" id="repeat-all"></path>
        </g>
    </g>
</svg>