<?xml version="1.0" encoding="UTF-8"?>
<svg width="45px" height="28px" viewBox="0 0 45 28" version="1.1" xmlns="http://www.w3.org/2000/svg" xmlns:xlink="http://www.w3.org/1999/xlink">
    <!-- Generator: Sketch 47.1 (45422) - http://www.bohemiancoding.com/sketch -->
    <title>rewind-b</title>
    <desc>Created with Sketch.</desc>
    <defs></defs>
    <g id="Stage" stroke="none" stroke-width="1" fill="none" fill-rule="evenodd">
        <g id="Artboard" transform="translate(-20.000000, -108.000000)" fill="#FFFFFF">
            <path d="M43,123.166667 L63.496129,135.122742 C63.9731809,135.401022 64.5854986,135.239886 64.8637789,134.762834 C64.9529916,134.609898 65,134.436018 65,134.258963 L65,109.741037 L65,109.741037 C65,109.188752 64.5522847,108.741037 64,108.741037 C63.8229454,108.741037 63.649065,108.788045 63.496129,108.877258 L63.496129,108.877258 L43,120.833333 L43,109.741037 L43,109.741037 C43,109.188752 42.5522847,108.741037 42,108.741037 C41.8229454,108.741037 41.649065,108.788045 41.496129,108.877258 L41.496129,108.877258 L20.4807638,121.136221 C20.0037119,121.414501 19.8425757,122.026819 20.120856,122.503871 C20.2077747,122.652875 20.3317602,122.77686 20.4807638,122.863779 L41.496129,135.122742 C41.9731809,135.401022 42.5854986,135.239886 42.8637789,134.762834 C42.9529916,134.609898 43,134.436018 43,134.258963 L43,123.166667 Z" id="rewind-b"></path>
        </g>
    </g>
</svg>