<?xml version="1.0" encoding="UTF-8"?>
<svg width="45px" height="34px" viewBox="0 0 45 34" version="1.1" xmlns="http://www.w3.org/2000/svg" xmlns:xlink="http://www.w3.org/1999/xlink">
    <!-- Generator: Sketch 47.1 (45422) - http://www.bohemiancoding.com/sketch -->
    <title>shuffle</title>
    <desc>Created with Sketch.</desc>
    <defs></defs>
    <g id="Stage" stroke="none" stroke-width="1" fill="none" fill-rule="evenodd">
        <g id="Artboard" transform="translate(-359.000000, -105.000000)" fill-rule="nonzero" fill="#FFFFFF">
            <path d="M395,109 L395,106.000476 C395,105.448192 395.447715,105.000476 396,105.000476 C396.208285,105.000476 396.411373,105.065514 396.580911,105.186509 L403.586149,110.185992 L403.586149,110.185992 C404.035691,110.506821 404.140034,111.131329 403.819206,111.58087 C403.754945,111.670912 403.67619,111.749667 403.586149,111.813927 L396.580911,116.813411 C396.131369,117.134239 395.506861,117.029896 395.186033,116.580354 C395.065037,116.410816 395,116.207729 395,115.999444 L395,113 L391.555935,113 C391.055551,113 390.573345,113.18757 390.204486,113.525692 L368.498413,133.422925 C367.391834,134.437289 365.945215,135 364.444065,135 L359,135 L359,131 L364.444065,131 C364.944449,131 365.426655,130.81243 365.795514,130.474308 L387.501587,110.577075 C388.608166,109.562711 390.054785,109 391.555935,109 L395,109 Z M383.501569,124.329968 L390.204486,130.474308 C390.573345,130.81243 391.055551,131 391.555935,131 L395,131 L395,128.000476 C395,127.448192 395.447715,127.000476 396,127.000476 C396.208285,127.000476 396.411373,127.065514 396.580911,127.186509 L403.586149,132.185992 C404.035691,132.506821 404.140034,133.131329 403.819206,133.58087 C403.754945,133.670912 403.67619,133.749667 403.586149,133.813927 L396.580911,138.813411 C396.131369,139.134239 395.506861,139.029896 395.186033,138.580354 C395.065037,138.410816 395,138.207729 395,137.999444 L395,135 L391.555935,135 C390.054785,135 388.608166,134.437289 387.501587,133.422925 L380.472951,126.980009 L383.501569,124.329968 Z M376.085188,117.531619 L373.05657,120.18166 L365.795514,113.525692 C365.426655,113.18757 364.944449,113 364.444065,113 L359,113 L359,109 L364.444065,109 C365.945215,109 367.391834,109.562711 368.498413,110.577075 L376.085188,117.531619 Z" id="shuffle"></path>
        </g>
    </g>
</svg>