<?xml version="1.0" encoding="UTF-8"?>
<svg width="24px" height="19px" viewBox="0 0 24 19" version="1.1" xmlns="http://www.w3.org/2000/svg" xmlns:xlink="http://www.w3.org/1999/xlink">
    <!-- Generator: Sketch 46.2 (44496) - http://www.bohemiancoding.com/sketch -->
    <title>sketch</title>
    <desc>Created with Sketch.</desc>
    <defs></defs>
    <g id="icons" stroke="none" stroke-width="1" fill="none" fill-rule="evenodd">
        <g id="Artboard" transform="translate(-626.000000, -203.000000)" fill-rule="nonzero" fill="#FFFFFF">
            <path d="M639.075626,218.697393 L648.598457,209 L643.059119,209 L639.075626,218.697393 Z M636.921589,218.694557 L632.928759,209 L627.401543,209 L636.921589,218.694557 Z M634.010254,209 L637.999391,218.685591 L641.978036,209 L634.010254,209 Z M631.067547,204.480993 L628.135042,208 L632.516896,208 L631.067547,204.480993 Z M631.950939,204 L633.598391,208 L642.388816,208 L644.031935,204 L631.950939,204 Z M644.921054,204.467315 L643.469899,208 L647.864958,208 L644.921054,204.467315 Z M638.067737,221.150992 L638.000609,221.314409 L637.934055,221.152817 L626,209 L631,203 L645,203 L650,209 L638.067737,221.150992 Z" id="sketch"></path>
        </g>
    </g>
</svg>