<?xml version="1.0" encoding="UTF-8"?>
<svg width="19px" height="23px" viewBox="0 0 19 23" version="1.1" xmlns="http://www.w3.org/2000/svg" xmlns:xlink="http://www.w3.org/1999/xlink">
    <!-- Generator: Sketch 46.2 (44496) - http://www.bohemiancoding.com/sketch -->
    <title>timer</title>
    <desc>Created with Sketch.</desc>
    <defs></defs>
    <g id="icons" stroke="none" stroke-width="1" fill="none" fill-rule="evenodd">
        <g id="Artboard" transform="translate(-832.000000, -201.000000)" fill-rule="nonzero" fill="#FFFFFF">
            <path d="M841.5,223 C846.19442,223 850,219.19442 850,214.5 C850,209.80558 846.19442,206 841.5,206 C836.80558,206 833,209.80558 833,214.5 C833,219.19442 836.80558,223 841.5,223 Z M840.146185,213.853292 C840.052476,214.04911 840,214.268427 840,214.5 C840,215.328427 840.671573,216 841.5,216 C842.328427,216 843,215.328427 843,214.5 C843,213.671573 842.328427,213 841.5,213 C841.268427,213 841.04911,213.052476 840.853292,213.146185 L837.353553,209.646447 L836.646447,210.353553 L840.146185,213.853292 Z M841,204 L839.501676,204 C838.672323,204 838,203.334203 838,202.5 C838,201.671573 838.671189,201 839.501676,201 L843.498324,201 C844.327677,201 845,201.665797 845,202.5 C845,203.328427 844.328811,204 843.498324,204 L842,204 L842,205.012932 C843.70988,205.101595 845.300157,205.642371 846.65357,206.518002 L847.585786,205.585786 C848.366835,204.804738 849.62772,204.799293 850.414214,205.585786 C851.195262,206.366835 851.200707,207.62772 850.414214,208.414214 L849.481998,209.34643 C850.442423,210.830905 851,212.600338 851,214.5 C851,219.746705 846.746705,224 841.5,224 C836.253295,224 832,219.746705 832,214.5 C832,209.421012 835.985718,205.272939 841,205.012932 L841,204 Z M847.473313,207.112473 C847.99277,207.533012 848.466988,208.00723 848.887527,208.526687 L849.707107,207.707107 C850.100774,207.31344 850.099938,206.685724 849.707107,206.292893 C849.31344,205.899226 848.685724,205.900062 848.292893,206.292893 L847.473313,207.112473 Z M839,202.5 C839,202.779075 839.221761,203 839.501676,203 L843.498324,203 C843.776267,203 844,202.7764 844,202.5 C844,202.220925 843.778239,202 843.498324,202 L839.501676,202 C839.223733,202 839,202.2236 839,202.5 Z M841.5,215 C841.223858,215 841,214.776142 841,214.5 C841,214.223858 841.223858,214 841.5,214 C841.776142,214 842,214.223858 842,214.5 C842,214.776142 841.776142,215 841.5,215 Z" id="timer"></path>
        </g>
    </g>
</svg>